<svg width="111" height="13" viewBox="0 0 111 13" fill="none" xmlns="http://www.w3.org/2000/svg">
<g clip-path="url(#clip0_1_1056)">
<path d="M29.4873 9.52874V0.806241H28.1504V10.9825H34.3698V9.64504H29.6036C29.5454 9.70319 29.4873 9.58689 29.4873 9.52874ZM43.5536 0.689941C42.1586 0.689941 40.8217 1.27144 39.8336 2.25999C38.8454 3.24854 38.3223 4.58599 38.3223 5.92344C38.3223 7.31904 38.8454 8.59834 39.8336 9.58689C40.7636 10.5754 42.1586 11.1569 43.5536 11.1569C44.9486 11.1569 46.2854 10.6336 47.2736 9.58689C48.2617 8.59834 48.7848 7.26089 48.7848 5.92344C48.7848 4.52784 48.2617 3.24854 47.2736 2.25999C46.2854 1.21329 44.9486 0.689941 43.5536 0.689941ZM46.2854 8.65649C45.5298 9.41244 44.5417 9.81949 43.5536 9.81949C42.5654 9.81949 41.5773 9.41244 40.8217 8.65649C40.0661 7.90054 39.6592 6.97014 39.6592 5.92344C39.6592 4.87674 40.0661 3.94634 40.8217 3.19039C41.5192 2.43444 42.5073 2.02739 43.5536 2.02739C44.5417 2.02739 45.5879 2.43444 46.2854 3.19039C46.9829 3.94634 47.3898 4.87674 47.3898 5.92344C47.4479 6.97014 47.0411 7.90054 46.2854 8.65649ZM17.1648 9.52874V6.73754C17.1648 6.67939 17.2229 6.62124 17.2811 6.62124H21.8729V5.28379H17.2811C17.2229 5.28379 17.1648 5.22564 17.1648 5.16749V2.37629C17.1648 2.31814 17.2229 2.25999 17.2811 2.25999H21.9892V0.922541H15.8279V11.0988H22.0473V9.76134H17.2811C17.2229 9.70319 17.1648 9.58689 17.1648 9.52874ZM5.19105 8.36574C5.19105 8.42389 5.13293 8.42389 5.0748 8.42389C5.01668 8.42389 4.95855 8.42389 4.95855 8.36574L1.93605 0.806241H0.424805L4.55168 10.9825H5.5398L9.66668 0.806241V0.748092H8.21355L5.19105 8.36574ZM94.5292 2.14369H97.5517C97.6098 2.14369 97.6679 2.20184 97.6679 2.25999V10.9825H99.0048V2.25999C99.0048 2.20184 99.0629 2.14369 99.1211 2.14369H102.144V0.806241H94.4711V2.14369H94.5292ZM55.9923 3.59744V2.25999C55.9923 2.20184 55.9923 2.20184 56.0504 2.20184H58.3754C58.8404 2.20184 59.2473 2.31814 59.5961 2.60889C60.0611 2.95779 60.2936 3.48114 60.2936 4.06264C60.2936 4.41154 60.1773 4.81859 59.9448 5.10934C59.7123 5.40009 59.7123 5.80714 60.0029 6.09789C60.1192 6.21419 60.2936 6.27234 60.4679 6.27234C60.6423 6.27234 60.8167 6.21419 60.9329 6.09789L60.9911 6.03974C61.4561 5.51639 61.6886 4.76044 61.6886 4.06264C61.6886 3.30669 61.4561 2.55074 60.9329 1.96924C60.5261 1.44589 59.7123 0.806241 58.3173 0.806241H54.5973V11.0406H55.9923V6.03974C55.9923 6.03974 55.9923 5.98159 56.0504 5.98159H56.1086L60.3517 10.9825L60.4098 11.0406H62.2117L59.0148 7.26089L55.9923 3.59744ZM108.305 11.0406H109.7V0.806241H108.305V11.0406ZM80.6954 2.14369H83.7179C83.7761 2.14369 83.8342 2.20184 83.8342 2.25999V10.9825H85.1711V2.25999C85.1711 2.20184 85.2292 2.14369 85.2873 2.14369H88.3098V0.806241H80.6373V2.14369H80.6954ZM69.7098 9.64504C69.7098 9.64504 69.6517 9.58689 69.6517 9.52874V6.73754C69.6517 6.67939 69.7098 6.62124 69.7679 6.62124H74.3598V5.28379H69.7679C69.7098 5.28379 69.6517 5.22564 69.6517 5.16749V2.37629C69.6517 2.31814 69.7098 2.25999 69.7679 2.25999H74.4179V0.922541H68.2567V11.0988H74.4761V9.76134H69.7679C69.7679 9.70319 69.7679 9.64504 69.7098 9.64504Z" fill="#141615"/>
</g>
<defs>
<clipPath id="clip0_1_1056">
<rect width="110" height="11.63" fill="white" transform="translate(0.352905 0.689941)"/>
</clipPath>
</defs>
</svg>
