<svg width="16" height="28" viewBox="0 0 16 28" fill="none" xmlns="http://www.w3.org/2000/svg">
<g clip-path="url(#clip0_1_731)">
<path d="M15.2155 2.53684C15.4691 2.29983 15.6238 1.96257 15.6447 1.60104C15.6656 1.23952 15.5508 0.884189 15.3264 0.615016C15.1019 0.345853 14.7866 0.185592 14.4517 0.170169C14.1165 0.154745 13.7897 0.285658 13.545 0.533383L1.06009 12.6673C0.797247 12.9231 0.647095 13.2869 0.647095 13.6689C0.647095 14.051 0.797072 14.4149 1.05992 14.6705L13.5448 26.8045C13.7896 27.0522 14.1165 27.1829 14.4517 27.1677C14.7866 27.1523 15.1019 26.992 15.3264 26.7229C15.5508 26.4537 15.6656 26.0982 15.6447 25.7368C15.6238 25.3753 15.4691 25.038 15.2155 24.801L3.76152 13.6691L15.2155 2.53684Z" fill="white"/>
<path d="M15.2155 2.53684C15.4691 2.29983 15.6238 1.96257 15.6447 1.60104C15.6656 1.23952 15.5508 0.884189 15.3264 0.615016C15.1019 0.345853 14.7866 0.185592 14.4517 0.170169C14.1165 0.154745 13.7897 0.285658 13.545 0.533383L1.06009 12.6673C0.797247 12.9231 0.647095 13.2869 0.647095 13.6689C0.647095 14.051 0.797072 14.4149 1.05992 14.6705L13.5448 26.8045C13.7896 27.0522 14.1165 27.1829 14.4517 27.1677C14.7866 27.1523 15.1019 26.992 15.3264 26.7229C15.5508 26.4537 15.6656 26.0982 15.6447 25.7368C15.6238 25.3753 15.4691 25.038 15.2155 24.801L3.76152 13.6691L15.2155 2.53684Z" fill="black" fill-opacity="0.2"/>
</g>
<defs>
<clipPath id="clip0_1_731">
<rect width="15" height="27" fill="white" transform="translate(0.647095 0.168945)"/>
</clipPath>
</defs>
</svg>
