<svg width="15" height="15" viewBox="0 0 15 15" fill="none" xmlns="http://www.w3.org/2000/svg">
<path d="M14.1631 8.9069C13.9686 8.9069 13.7822 8.98414 13.6447 9.12158C13.5073 9.25911 13.43 9.44561 13.43 9.63999V12.5725C13.43 12.767 13.3528 12.9535 13.2152 13.0909C13.0778 13.2284 12.8913 13.3057 12.6968 13.3057H2.43308C2.23864 13.3057 2.05217 13.2284 1.91469 13.0909C1.77719 12.9535 1.69996 12.767 1.69996 12.5725V9.63999C1.69996 9.44561 1.62272 9.25911 1.48523 9.12158C1.34774 8.98414 1.16127 8.9069 0.96683 8.9069C0.772393 8.9069 0.585919 8.98414 0.448432 9.12158C0.310943 9.25911 0.233704 9.44561 0.233704 9.63999V12.5725C0.233704 13.1558 0.465424 13.7153 0.877887 14.1277C1.29035 14.5402 1.84977 14.7719 2.43308 14.7719H12.6968C13.2801 14.7719 13.8396 14.5402 14.252 14.1277C14.6645 13.7153 14.8963 13.1558 14.8963 12.5725V9.63999C14.8963 9.44561 14.819 9.25911 14.6815 9.12158C14.5441 8.98414 14.3576 8.9069 14.1631 8.9069ZM7.04445 10.1605C7.11418 10.2273 7.19639 10.2796 7.28638 10.3145C7.37414 10.3532 7.46902 10.3733 7.56497 10.3733C7.66092 10.3733 7.7558 10.3532 7.84356 10.3145C7.93355 10.2796 8.01576 10.2273 8.08549 10.1605L11.018 7.22803C11.1561 7.08998 11.2336 6.90275 11.2336 6.70751C11.2336 6.51228 11.1561 6.32504 11.018 6.18699C10.88 6.04894 10.6927 5.97138 10.4975 5.97138C10.3022 5.97138 10.115 6.04894 9.97695 6.18699L8.29807 7.8732V0.842505C8.29807 0.648064 8.22083 0.461591 8.08337 0.324103C7.94588 0.186615 7.75941 0.109375 7.56497 0.109375C7.37053 0.109375 7.18406 0.186615 7.04657 0.324103C6.90908 0.461591 6.83184 0.648064 6.83184 0.842505V7.8732L5.15298 6.18699C5.08463 6.11864 5.00348 6.06442 4.91417 6.02742C4.82485 5.99042 4.72913 5.97138 4.63246 5.97138C4.53579 5.97138 4.44007 5.99042 4.35076 6.02742C4.26145 6.06442 4.1803 6.11864 4.11195 6.18699C4.04359 6.25535 3.98937 6.3365 3.95237 6.42581C3.91537 6.51512 3.89633 6.61084 3.89633 6.70751C3.89633 6.80419 3.91537 6.8999 3.95237 6.98922C3.98937 7.07853 4.04359 7.15968 4.11195 7.22803L7.04445 10.1605Z" fill="black"/>
</svg>
