<svg width="15" height="15" viewBox="0 0 15 15" fill="none" xmlns="http://www.w3.org/2000/svg">
<path d="M7.64058 4.71585C6.35523 4.71585 5.30629 5.76481 5.30629 7.05017C5.30629 8.33553 6.35523 9.38449 7.64058 9.38449C8.92592 9.38449 9.97486 8.33553 9.97486 7.05017C9.97486 5.76481 8.92592 4.71585 7.64058 4.71585ZM14.6416 7.05017C14.6416 6.08352 14.6504 5.12563 14.5961 4.16072C14.5419 3.03996 14.2862 2.04529 13.4667 1.22574C12.6454 0.40443 11.6525 0.150509 10.5317 0.0962225C9.56509 0.0419358 8.60721 0.0506918 7.64233 0.0506918C6.67569 0.0506918 5.71781 0.0419358 4.75293 0.0962225C3.63219 0.150509 2.63754 0.406182 1.818 1.22574C0.99671 2.04704 0.742792 3.03996 0.688507 4.16072C0.634221 5.12738 0.642977 6.08527 0.642977 7.05017C0.642977 8.01507 0.634221 8.97472 0.688507 9.93962C0.742792 11.0604 0.998461 12.0551 1.818 12.8746C2.63929 13.6959 3.63219 13.9498 4.75293 14.0041C5.71957 14.0585 6.67744 14.0497 7.64233 14.0497C8.60896 14.0497 9.56684 14.0585 10.5317 14.0041C11.6525 13.9498 12.6471 13.6941 13.4667 12.8746C14.2879 12.0533 14.5419 11.0604 14.5961 9.93962C14.6521 8.97472 14.6416 8.01682 14.6416 7.05017ZM7.64058 10.6418C5.65302 10.6418 4.04896 9.03776 4.04896 7.05017C4.04896 5.06258 5.65302 3.45849 7.64058 3.45849C9.62813 3.45849 11.2322 5.06258 11.2322 7.05017C11.2322 9.03776 9.62813 10.6418 7.64058 10.6418ZM11.3793 4.15021C10.9152 4.15021 10.5405 3.77545 10.5405 3.31139C10.5405 2.84734 10.9152 2.47258 11.3793 2.47258C11.8433 2.47258 12.2181 2.84734 12.2181 3.31139C12.2182 3.42159 12.1966 3.53072 12.1545 3.63256C12.1124 3.73439 12.0506 3.82692 11.9727 3.90484C11.8948 3.98276 11.8023 4.04453 11.7004 4.08664C11.5986 4.12874 11.4895 4.15035 11.3793 4.15021Z" fill="white" fill-opacity="0.9"/>
</svg>
