<svg width="13" height="15" viewBox="0 0 13 15" fill="none" xmlns="http://www.w3.org/2000/svg">
<path d="M11.3516 3.23541C11.2511 3.18347 11.1532 3.12651 11.0584 3.06477C10.7826 2.88247 10.5297 2.66766 10.3052 2.42499C9.74354 1.78242 9.53377 1.13053 9.4565 0.674127H9.45959C9.39505 0.295285 9.42173 0.0501709 9.42577 0.0501709H6.86747V9.94101C6.86747 10.0738 6.86747 10.2051 6.86188 10.3347C6.86188 10.3509 6.86033 10.3658 6.8594 10.3831C6.8594 10.3903 6.8594 10.3977 6.85785 10.4052V10.4108C6.83089 10.7656 6.7171 11.1084 6.52652 11.4091C6.33593 11.7096 6.07439 11.9589 5.76489 12.1346C5.44233 12.3182 5.07749 12.4143 4.70637 12.4139C3.51443 12.4139 2.54839 11.4421 2.54839 10.242C2.54839 9.04184 3.51443 8.07007 4.70637 8.07007C4.93201 8.06986 5.15625 8.10536 5.37078 8.17526L5.37388 5.57083C4.72263 5.48672 4.06101 5.53848 3.43075 5.72282C2.80051 5.90716 2.21531 6.2201 1.71207 6.64189C1.27112 7.02495 0.900415 7.48201 0.616632 7.9925C0.508639 8.17867 0.101185 8.92673 0.0518441 10.1408C0.0208111 10.8299 0.227797 11.5439 0.32648 11.8389V11.8452C0.388544 12.0189 0.629045 12.6118 1.02098 13.1117C1.33702 13.5126 1.71042 13.8648 2.12915 14.157V14.1507L2.13536 14.157C3.37385 14.9984 4.74703 14.9432 4.74703 14.9432C4.98474 14.9335 5.78103 14.9432 6.68531 14.5148C7.68828 14.0397 8.25926 13.332 8.25926 13.332C8.62404 12.909 8.91411 12.4271 9.117 11.9069C9.3485 11.2985 9.42577 10.5687 9.42577 10.277V5.02972C9.45681 5.04834 9.87015 5.32169 9.87015 5.32169C9.87015 5.32169 10.4657 5.70332 11.3947 5.95185C12.0614 6.1287 12.9594 6.16593 12.9594 6.16593V3.62667C12.6447 3.66081 12.0057 3.56152 11.3516 3.23541Z" fill="white" fill-opacity="0.9"/>
</svg>
