<svg width="15" height="28" viewBox="0 0 15 28" fill="none" xmlns="http://www.w3.org/2000/svg">
<path d="M0.431627 3.13791C0.178009 2.9009 0.0233323 2.56364 0.00242745 2.20211C-0.0184751 1.84059 0.0963144 1.48526 0.320666 1.21609C0.545197 0.946928 0.860456 0.786666 1.19543 0.771243C1.53057 0.755819 1.85736 0.886733 2.10208 1.13446L14.587 13.2684C14.8498 13.5242 15 13.888 15 14.27C15 14.6521 14.85 15.016 14.5872 15.2716L2.10225 27.4056C1.85751 27.6533 1.53059 27.784 1.19543 27.7688C0.860469 27.7534 0.545188 27.5931 0.320666 27.324C0.0963144 27.0548 -0.0184773 26.6993 0.00242745 26.3379C0.0233301 25.9764 0.178009 25.6391 0.431627 25.4021L11.8856 14.2702L0.431627 3.13791Z" fill="white"/>
</svg>
