<svg width="3" height="7" viewBox="0 0 3 7" fill="none" xmlns="http://www.w3.org/2000/svg">
<path d="M0.521193 0.301758C0.280837 0.301758 0.0849915 0.497604 0.0849915 0.73796C0.0938935 0.978316 0.280837 1.17416 0.521193 1.17416C0.761549 1.17416 0.957394 0.978316 0.957394 0.73796C0.957394 0.497604 0.761549 0.301758 0.521193 0.301758ZM0.521193 1.09404C0.325347 1.09404 0.174012 0.933805 0.174012 0.73796C0.174012 0.542114 0.334249 0.381877 0.521193 0.381877C0.717038 0.381877 0.868373 0.542114 0.868373 0.73796C0.868373 0.933805 0.708136 1.09404 0.521193 1.09404ZM1.24226 4.40562C0.610214 4.40562 0.0938941 4.92194 0.0938941 5.55398C0.0938941 6.18603 0.610214 6.70235 1.24226 6.70235C1.87431 6.70235 2.39063 6.18603 2.39063 5.55398C2.39063 4.91303 1.87431 4.40562 1.24226 4.40562Z" fill="black"/>
</svg>
