<svg width="15" height="14" viewBox="0 0 15 14" fill="none" xmlns="http://www.w3.org/2000/svg">
<path fill-rule="evenodd" clip-rule="evenodd" d="M0.642334 1.3699C0.642334 1.07285 0.760337 0.787973 0.970383 0.577927C1.18043 0.367881 1.46531 0.249879 1.76236 0.249879H12.9273C13.0745 0.249638 13.2203 0.278436 13.3564 0.334622C13.4924 0.390809 13.6161 0.473281 13.7202 0.577317C13.8244 0.681353 13.907 0.804913 13.9633 0.940913C14.0196 1.07691 14.0486 1.22269 14.0485 1.3699V12.5348C14.0487 12.6821 14.0198 12.8279 13.9635 12.964C13.9073 13.1 13.8248 13.2237 13.7207 13.3278C13.6166 13.432 13.493 13.5146 13.357 13.5709C13.2209 13.6272 13.0751 13.6562 12.9279 13.6561H1.76236C1.61523 13.6561 1.46953 13.6271 1.3336 13.5708C1.19768 13.5144 1.07418 13.4319 0.970167 13.3278C0.866155 13.2237 0.783667 13.1002 0.727416 12.9642C0.671165 12.8283 0.642254 12.6826 0.642334 12.5354V1.3699ZM5.94875 5.3613H7.76408V6.27292C8.02611 5.74886 8.69642 5.27721 9.70371 5.27721C11.6348 5.27721 12.0924 6.32106 12.0924 8.23632V11.7841H10.1382V8.67263C10.1382 7.58186 9.87617 6.96639 9.21073 6.96639C8.28753 6.96639 7.90362 7.63 7.90362 8.67263V11.7841H5.94875V5.3613ZM2.5972 11.7006H4.55207V5.27721H2.5972V11.7006ZM4.83177 3.18218C4.83546 3.34956 4.80567 3.51599 4.74417 3.6717C4.68266 3.82741 4.59067 3.96927 4.4736 4.08895C4.35653 4.20863 4.21673 4.30372 4.06241 4.36863C3.90809 4.43355 3.74236 4.46699 3.57494 4.46699C3.40752 4.46699 3.24179 4.43355 3.08747 4.36863C2.93315 4.30372 2.79335 4.20863 2.67628 4.08895C2.5592 3.96927 2.46722 3.82741 2.40571 3.6717C2.34421 3.51599 2.31442 3.34956 2.31811 3.18218C2.32534 2.85364 2.46093 2.54099 2.69585 2.31119C2.93076 2.0814 3.24632 1.95272 3.57494 1.95272C3.90356 1.95272 4.21912 2.0814 4.45403 2.31119C4.68894 2.54099 4.82454 2.85364 4.83177 3.18218Z" fill="white" fill-opacity="0.9"/>
</svg>
