<svg width="15" height="26" viewBox="0 0 15 26" fill="none" xmlns="http://www.w3.org/2000/svg">
<path d="M0.695646 3.10265C0.463164 2.8832 0.321376 2.57092 0.302213 2.23617C0.283053 1.90143 0.388276 1.57242 0.593932 1.32319C0.799752 1.07396 1.08874 0.92557 1.3958 0.911289C1.70301 0.897008 2.00257 1.01822 2.2269 1.2476L13.6714 12.4828C13.9124 12.7196 14.05 13.0565 14.05 13.4102C14.05 13.764 13.9125 14.1009 13.6716 14.3376L2.22706 25.5728C2.00272 25.8022 1.70303 25.9232 1.3958 25.9091C1.08875 25.8948 0.799744 25.7464 0.593932 25.4972C0.388276 25.248 0.283051 24.9188 0.302213 24.5842C0.321374 24.2495 0.463164 23.9372 0.695646 23.7177L11.1951 13.4104L0.695646 3.10265Z" fill="white" fill-opacity="0.9"/>
</svg>
