<svg width="15" height="14" viewBox="0 0 15 14" fill="none" xmlns="http://www.w3.org/2000/svg">
<path d="M7.64058 4.66751C6.35523 4.66751 5.30629 5.71647 5.30629 7.00183C5.30629 8.28719 6.35523 9.33615 7.64058 9.33615C8.92592 9.33615 9.97486 8.28719 9.97486 7.00183C9.97486 5.71647 8.92592 4.66751 7.64058 4.66751ZM14.6416 7.00183C14.6416 6.03518 14.6504 5.07729 14.5961 4.11238C14.5419 2.99162 14.2862 1.99695 13.4667 1.1774C12.6454 0.356091 11.6525 0.102169 10.5317 0.0478827C9.56509 -0.006404 8.60721 0.00235193 7.64233 0.00235193C6.67569 0.00235193 5.71781 -0.006404 4.75293 0.0478827C3.63219 0.102169 2.63754 0.357842 1.818 1.1774C0.99671 1.9987 0.742792 2.99162 0.688507 4.11238C0.634221 5.07904 0.642977 6.03693 0.642977 7.00183C0.642977 7.96673 0.634221 8.92638 0.688507 9.89128C0.742792 11.012 0.998461 12.0067 1.818 12.8263C2.63929 13.6475 3.63219 13.9015 4.75293 13.9557C5.71957 14.0101 6.67744 14.0014 7.64233 14.0014C8.60896 14.0014 9.56684 14.0101 10.5317 13.9557C11.6525 13.9015 12.6471 13.6458 13.4667 12.8263C14.2879 12.005 14.5419 11.012 14.5961 9.89128C14.6521 8.92638 14.6416 7.96848 14.6416 7.00183ZM7.64058 10.5935C5.65302 10.5935 4.04896 8.98942 4.04896 7.00183C4.04896 5.01424 5.65302 3.41015 7.64058 3.41015C9.62813 3.41015 11.2322 5.01424 11.2322 7.00183C11.2322 8.98942 9.62813 10.5935 7.64058 10.5935ZM11.3793 4.10187C10.9152 4.10187 10.5405 3.72711 10.5405 3.26305C10.5405 2.799 10.9152 2.42424 11.3793 2.42424C11.8433 2.42424 12.2181 2.799 12.2181 3.26305C12.2182 3.37325 12.1966 3.48238 12.1545 3.58422C12.1124 3.68605 12.0506 3.77858 11.9727 3.8565C11.8948 3.93442 11.8023 3.99619 11.7004 4.0383C11.5986 4.0804 11.4895 4.10201 11.3793 4.10187Z" fill="white" fill-opacity="0.9"/>
</svg>
