<svg width="15" height="14" viewBox="0 0 15 14" fill="none" xmlns="http://www.w3.org/2000/svg">
<path fill-rule="evenodd" clip-rule="evenodd" d="M0.642456 1.1702C0.642456 0.873146 0.760459 0.588266 0.970505 0.37822C1.18055 0.168174 1.46543 0.0501724 1.76249 0.0501724H12.9275C13.0747 0.0499314 13.2205 0.0787294 13.3566 0.134915C13.4926 0.191102 13.6163 0.273574 13.7204 0.37761C13.8246 0.481646 13.9072 0.605206 13.9635 0.741206C14.0198 0.877206 14.0488 1.02299 14.0487 1.1702V12.3351C14.0489 12.4824 14.02 12.6282 13.9637 12.7643C13.9075 12.9003 13.825 13.024 13.7209 13.1281C13.6168 13.2323 13.4932 13.3149 13.3572 13.3712C13.2211 13.4275 13.0753 13.4565 12.9281 13.4564H1.76249C1.61535 13.4564 1.46966 13.4274 1.33373 13.3711C1.1978 13.3147 1.0743 13.2322 0.970289 13.1281C0.866277 13.024 0.783789 12.9005 0.727538 12.7645C0.671287 12.6286 0.642376 12.4829 0.642456 12.3357V1.1702ZM5.94888 5.1616H7.76421V6.07322C8.02624 5.54916 8.69655 5.07751 9.70384 5.07751C11.635 5.07751 12.0926 6.12136 12.0926 8.03662V11.5844H10.1383V8.47293C10.1383 7.38216 9.8763 6.76669 9.21086 6.76669C8.28766 6.76669 7.90375 7.4303 7.90375 8.47293V11.5844H5.94888V5.1616ZM2.59733 11.5009H4.5522V5.07751H2.59733V11.5009ZM4.8319 2.98248C4.83559 3.14986 4.8058 3.31629 4.7443 3.472C4.68279 3.62771 4.5908 3.76957 4.47373 3.88925C4.35666 4.00893 4.21686 4.10402 4.06254 4.16893C3.90822 4.23385 3.74249 4.26729 3.57507 4.26729C3.40765 4.26729 3.24192 4.23385 3.0876 4.16893C2.93328 4.10402 2.79348 4.00893 2.67641 3.88925C2.55933 3.76957 2.46735 3.62771 2.40584 3.472C2.34434 3.31629 2.31455 3.14986 2.31824 2.98248C2.32547 2.65394 2.46106 2.34129 2.69598 2.11149C2.93089 1.8817 3.24645 1.75302 3.57507 1.75302C3.90369 1.75302 4.21925 1.8817 4.45416 2.11149C4.68907 2.34129 4.82467 2.65394 4.8319 2.98248Z" fill="white" fill-opacity="0.9"/>
</svg>
