<svg width="15" height="14" viewBox="0 0 15 14" fill="none" xmlns="http://www.w3.org/2000/svg">
<path fill-rule="evenodd" clip-rule="evenodd" d="M0.642456 1.12186C0.642456 0.824807 0.760459 0.539927 0.970505 0.329881C1.18055 0.119835 1.46543 0.00183255 1.76249 0.00183255H12.9275C13.0747 0.00159155 13.2205 0.0303895 13.3566 0.0865755C13.4926 0.142763 13.6163 0.225235 13.7204 0.329271C13.8246 0.433307 13.9072 0.556867 13.9635 0.692867C14.0198 0.828867 14.0488 0.974647 14.0487 1.12186V12.2868C14.0489 12.4341 14.02 12.5799 13.9637 12.716C13.9075 12.852 13.825 12.9757 13.7209 13.0798C13.6168 13.184 13.4932 13.2666 13.3572 13.3229C13.2211 13.3792 13.0753 13.4082 12.9281 13.4081H1.76249C1.61535 13.4081 1.46966 13.3791 1.33373 13.3228C1.1978 13.2664 1.0743 13.1839 0.970289 13.0798C0.866277 12.9757 0.783789 12.8522 0.727538 12.7162C0.671287 12.5803 0.642376 12.4346 0.642456 12.2874V1.12186ZM5.94888 5.11326H7.76421V6.02488C8.02624 5.50082 8.69655 5.02917 9.70384 5.02917C11.635 5.02917 12.0926 6.07302 12.0926 7.98828V11.5361H10.1383V8.42459C10.1383 7.33382 9.8763 6.71835 9.21086 6.71835C8.28766 6.71835 7.90375 7.38196 7.90375 8.42459V11.5361H5.94888V5.11326ZM2.59733 11.4526H4.5522V5.02917H2.59733V11.4526ZM4.8319 2.93414C4.83559 3.10152 4.8058 3.26795 4.7443 3.42366C4.68279 3.57937 4.5908 3.72123 4.47373 3.84091C4.35666 3.96059 4.21686 4.05568 4.06254 4.12059C3.90822 4.18551 3.74249 4.21895 3.57507 4.21895C3.40765 4.21895 3.24192 4.18551 3.0876 4.12059C2.93328 4.05568 2.79348 3.96059 2.67641 3.84091C2.55933 3.72123 2.46735 3.57937 2.40584 3.42366C2.34434 3.26795 2.31455 3.10152 2.31824 2.93414C2.32547 2.6056 2.46106 2.29295 2.69598 2.06315C2.93089 1.83336 3.24645 1.70468 3.57507 1.70468C3.90369 1.70468 4.21925 1.83336 4.45416 2.06315C4.68907 2.29295 4.82467 2.6056 4.8319 2.93414Z" fill="white" fill-opacity="0.9"/>
</svg>
