<svg width="15" height="15" viewBox="0 0 15 15" fill="none" xmlns="http://www.w3.org/2000/svg">
<path d="M8.81134 7.69512L7.17364 6.93095C7.03072 6.8646 6.91332 6.93897 6.91332 7.0972V8.53658C6.91332 8.69481 7.03072 8.76918 7.17364 8.70283L8.81062 7.93866C8.95426 7.87158 8.95426 7.7622 8.81134 7.69512ZM7.64249 0.816895C3.77645 0.816895 0.642487 3.95085 0.642487 7.81689C0.642487 11.6829 3.77645 14.8169 7.64249 14.8169C11.5085 14.8169 14.6425 11.6829 14.6425 7.81689C14.6425 3.95085 11.5085 0.816895 7.64249 0.816895ZM7.64249 10.6606C4.05937 10.6606 3.99666 10.3376 3.99666 7.81689C3.99666 5.29616 4.05937 4.97314 7.64249 4.97314C11.2256 4.97314 11.2883 5.29616 11.2883 7.81689C11.2883 10.3376 11.2256 10.6606 7.64249 10.6606Z" fill="white" fill-opacity="0.9"/>
</svg>
