<svg width="28" height="39" viewBox="0 0 28 39" fill="none" xmlns="http://www.w3.org/2000/svg">
<path d="M5.57392 10.8443C5.53959 10.7988 5.51839 10.749 5.51839 10.6971V5.81112C5.51839 5.68833 5.61432 5.58989 5.73145 5.58989H13.932C15.6305 5.58989 17.1008 6.06938 18.2983 7.01251C19.8989 8.27001 20.8542 10.3267 20.8542 12.5209C20.8542 13.898 20.4613 15.2551 19.7161 16.4533L19.6748 16.5168C18.775 17.5626 18.8305 19.1853 19.8039 20.1484C20.2513 20.5856 20.8533 20.828 21.4954 20.828C22.1629 20.828 22.8112 20.5603 23.2302 20.1104L23.3404 19.995C24.9116 17.9468 25.7779 15.291 25.7779 12.522C25.7779 9.59419 24.8541 6.7934 23.1767 4.63725C21.6631 2.69278 18.8295 0.378906 13.932 0.378906H0.650146V38.7473H5.51839V19.9845C5.51839 19.8912 5.57493 19.8087 5.65673 19.7758C5.67087 19.7706 5.7264 19.7611 5.72943 19.7589C5.79204 19.7589 5.85263 19.7875 5.88898 19.8372L21.036 38.5399L21.2045 38.7473H27.6501L16.2576 24.5264L5.57392 10.8443Z" fill="black"/>
</svg>
