<svg width="15" height="14" viewBox="0 0 15 14" fill="none" xmlns="http://www.w3.org/2000/svg">
<path d="M8.81131 6.88006L7.17361 6.11589C7.03069 6.04954 6.91329 6.12391 6.91329 6.28214V7.72152C6.91329 7.87975 7.03069 7.95412 7.17361 7.88777L8.81059 7.1236C8.95423 7.05652 8.95423 6.94714 8.81131 6.88006ZM7.64246 0.00183105C3.77642 0.00183105 0.642456 3.13579 0.642456 7.00183C0.642456 10.8678 3.77642 14.0018 7.64246 14.0018C11.5085 14.0018 14.6425 10.8678 14.6425 7.00183C14.6425 3.13579 11.5085 0.00183105 7.64246 0.00183105ZM7.64246 9.84558C4.05934 9.84558 3.99663 9.52256 3.99663 7.00183C3.99663 4.4811 4.05934 4.15808 7.64246 4.15808C11.2256 4.15808 11.2883 4.4811 11.2883 7.00183C11.2883 9.52256 11.2256 9.84558 7.64246 9.84558Z" fill="white" fill-opacity="0.9"/>
</svg>
