<svg width="16" height="28" viewBox="0 0 16 28" fill="none" xmlns="http://www.w3.org/2000/svg">
<path d="M15.2154 3.13791C15.469 2.9009 15.6237 2.56364 15.6446 2.20211C15.6655 1.84059 15.5507 1.48526 15.3263 1.21609C15.1018 0.946928 14.7865 0.786666 14.4516 0.771243C14.1164 0.755819 13.7896 0.886733 13.5449 1.13446L1.05997 13.2684C0.797125 13.5242 0.646973 13.888 0.646973 14.27C0.646973 14.6521 0.79695 15.016 1.0598 15.2716L13.5447 27.4056C13.7895 27.6533 14.1164 27.784 14.4516 27.7688C14.7865 27.7534 15.1018 27.5931 15.3263 27.324C15.5507 27.0548 15.6655 26.6993 15.6446 26.3379C15.6237 25.9764 15.469 25.6391 15.2154 25.4021L3.7614 14.2702L15.2154 3.13791Z" fill="black" fill-opacity="0.2"/>
</svg>
