<svg width="13" height="16" viewBox="0 0 13 16" fill="none" xmlns="http://www.w3.org/2000/svg">
<path d="M11.3515 3.43512C11.251 3.38318 11.1531 3.32622 11.0583 3.26448C10.7824 3.08218 10.5296 2.86737 10.3051 2.6247C9.74342 1.98212 9.53364 1.33024 9.45637 0.873834H9.45947C9.39493 0.494992 9.42161 0.249878 9.42565 0.249878H6.86734V10.1407C6.86734 10.2735 6.86734 10.4048 6.86176 10.5344C6.86176 10.5506 6.86021 10.5655 6.85928 10.5829C6.85928 10.59 6.85928 10.5974 6.85773 10.6049V10.6105C6.83076 10.9653 6.71698 11.3081 6.52639 11.6088C6.33581 11.9093 6.07427 12.1586 5.76477 12.3343C5.44221 12.5179 5.07737 12.614 4.70625 12.6136C3.5143 12.6136 2.54827 11.6418 2.54827 10.4417C2.54827 9.24155 3.5143 8.26978 4.70625 8.26978C4.93189 8.26956 5.15613 8.30506 5.37066 8.37496L5.37376 5.77054C4.72251 5.68643 4.06089 5.73818 3.43063 5.92253C2.80038 6.10686 2.21518 6.41981 1.71195 6.8416C1.271 7.22466 0.900293 7.68172 0.61651 8.19221C0.508517 8.37837 0.101063 9.12643 0.0517221 10.3405C0.020689 11.0296 0.227675 11.7436 0.326358 12.0386V12.0449C0.388422 12.2186 0.628922 12.8115 1.02086 13.3114C1.3369 13.7123 1.7103 14.0645 2.12903 14.3567V14.3504L2.13523 14.3567C3.37373 15.1981 4.74691 15.1429 4.74691 15.1429C4.98462 15.1332 5.78091 15.1429 6.68518 14.7145C7.68815 14.2394 8.25914 13.5317 8.25914 13.5317C8.62392 13.1088 8.91398 12.6268 9.11688 12.1066C9.34838 11.4982 9.42565 10.7684 9.42565 10.4767V5.22942C9.45669 5.24804 9.87003 5.52139 9.87003 5.52139C9.87003 5.52139 10.4656 5.90303 11.3946 6.15156C12.0612 6.32841 12.9593 6.36564 12.9593 6.36564V3.82638C12.6446 3.86051 12.0056 3.76122 11.3515 3.43512Z" fill="white" fill-opacity="0.9"/>
</svg>
