<svg width="15" height="15" viewBox="0 0 15 15" fill="none" xmlns="http://www.w3.org/2000/svg">
<path d="M7.64046 4.91555C6.3551 4.91555 5.30617 5.96451 5.30617 7.24988C5.30617 8.53524 6.3551 9.5842 7.64046 9.5842C8.9258 9.5842 9.97473 8.53524 9.97473 7.24988C9.97473 5.96451 8.9258 4.91555 7.64046 4.91555ZM14.6415 7.24988C14.6415 6.28322 14.6503 5.32533 14.596 4.36043C14.5418 3.23967 14.286 2.24499 13.4666 1.42545C12.6452 0.604137 11.6523 0.350216 10.5316 0.29593C9.56497 0.241643 8.60709 0.250399 7.64221 0.250399C6.67556 0.250399 5.71768 0.241643 4.7528 0.29593C3.63207 0.350216 2.63742 0.605889 1.81788 1.42545C0.996588 2.24674 0.74267 3.23967 0.688385 4.36043C0.634099 5.32708 0.642855 6.28497 0.642855 7.24988C0.642855 8.21478 0.634099 9.17442 0.688385 10.1393C0.74267 11.2601 0.998339 12.2548 1.81788 13.0743C2.63917 13.8956 3.63207 14.1495 4.7528 14.2038C5.71945 14.2582 6.67731 14.2494 7.64221 14.2494C8.60884 14.2494 9.56672 14.2582 10.5316 14.2038C11.6523 14.1495 12.647 13.8938 13.4666 13.0743C14.2878 12.253 14.5418 11.2601 14.596 10.1393C14.652 9.17442 14.6415 8.21653 14.6415 7.24988ZM7.64046 10.8416C5.6529 10.8416 4.04884 9.23747 4.04884 7.24988C4.04884 5.26229 5.6529 3.6582 7.64046 3.6582C9.62801 3.6582 11.2321 5.26229 11.2321 7.24988C11.2321 9.23747 9.62801 10.8416 7.64046 10.8416ZM11.3792 4.34992C10.9151 4.34992 10.5404 3.97516 10.5404 3.5111C10.5404 3.04704 10.9151 2.67229 11.3792 2.67229C11.8432 2.67229 12.218 3.04704 12.218 3.5111C12.2181 3.6213 12.1965 3.73043 12.1544 3.83227C12.1123 3.93409 12.0505 4.02662 11.9726 4.10454C11.8947 4.18247 11.8022 4.24424 11.7003 4.28635C11.5985 4.32845 11.4893 4.35006 11.3792 4.34992Z" fill="white" fill-opacity="0.9"/>
</svg>
