<svg width="15" height="15" viewBox="0 0 15 15" fill="none" xmlns="http://www.w3.org/2000/svg">
<path d="M7.64061 5.48257C6.35526 5.48257 5.30632 6.53153 5.30632 7.81689C5.30632 9.10226 6.35526 10.1512 7.64061 10.1512C8.92595 10.1512 9.97489 9.10226 9.97489 7.81689C9.97489 6.53153 8.92595 5.48257 7.64061 5.48257ZM14.6417 7.81689C14.6417 6.85024 14.6504 5.89235 14.5962 4.92745C14.5419 3.80669 14.2862 2.81201 13.4667 1.99246C12.6454 1.17115 11.6525 0.917233 10.5318 0.862946C9.56512 0.808659 8.60724 0.817415 7.64236 0.817415C6.67572 0.817415 5.71784 0.808659 4.75296 0.862946C3.63222 0.917233 2.63757 1.17291 1.81803 1.99246C0.99674 2.81376 0.742823 3.80669 0.688537 4.92745C0.634252 5.8941 0.643007 6.85199 0.643007 7.81689C0.643007 8.7818 0.634252 9.74144 0.688537 10.7063C0.742823 11.8271 0.998491 12.8218 1.81803 13.6414C2.63932 14.4626 3.63222 14.7166 4.75296 14.7708C5.7196 14.8252 6.67747 14.8164 7.64236 14.8164C8.60899 14.8164 9.56687 14.8252 10.5318 14.7708C11.6525 14.7166 12.6471 14.4608 13.4667 13.6414C14.2879 12.82 14.5419 11.8271 14.5962 10.7063C14.6522 9.74144 14.6417 8.78355 14.6417 7.81689ZM7.64061 11.4086C5.65305 11.4086 4.04899 9.80449 4.04899 7.81689C4.04899 5.8293 5.65305 4.22522 7.64061 4.22522C9.62817 4.22522 11.2322 5.8293 11.2322 7.81689C11.2322 9.80449 9.62817 11.4086 7.64061 11.4086ZM11.3793 4.91693C10.9153 4.91693 10.5405 4.54218 10.5405 4.07811C10.5405 3.61406 10.9153 3.2393 11.3793 3.2393C11.8434 3.2393 12.2181 3.61406 12.2181 4.07811C12.2182 4.18832 12.1967 4.29745 12.1545 4.39928C12.1124 4.50111 12.0507 4.59364 11.9727 4.67156C11.8948 4.74948 11.8023 4.81126 11.7005 4.85336C11.5986 4.89547 11.4895 4.91707 11.3793 4.91693Z" fill="white" fill-opacity="0.9"/>
</svg>
