<svg width="15" height="15" viewBox="0 0 15 15" fill="none" xmlns="http://www.w3.org/2000/svg">
<path d="M8.81131 6.9284L7.17361 6.16423C7.03069 6.09788 6.91329 6.17225 6.91329 6.33048V7.76986C6.91329 7.92809 7.03069 8.00246 7.17361 7.93611L8.81059 7.17194C8.95423 7.10486 8.95423 6.99548 8.81131 6.9284ZM7.64246 0.0501709C3.77642 0.0501709 0.642456 3.18413 0.642456 7.05017C0.642456 10.9162 3.77642 14.0502 7.64246 14.0502C11.5085 14.0502 14.6425 10.9162 14.6425 7.05017C14.6425 3.18413 11.5085 0.0501709 7.64246 0.0501709ZM7.64246 9.89392C4.05934 9.89392 3.99663 9.5709 3.99663 7.05017C3.99663 4.52944 4.05934 4.20642 7.64246 4.20642C11.2256 4.20642 11.2883 4.52944 11.2883 7.05017C11.2883 9.5709 11.2256 9.89392 7.64246 9.89392Z" fill="white" fill-opacity="0.9"/>
</svg>
