<svg width="13" height="16" viewBox="0 0 13 16" fill="none" xmlns="http://www.w3.org/2000/svg">
<path d="M11.3516 4.00214C11.2511 3.95019 11.1532 3.89323 11.0584 3.8315C10.7826 3.6492 10.5297 3.43439 10.3052 3.19172C9.74354 2.54914 9.53377 1.89726 9.4565 1.44085H9.45959C9.39505 1.06201 9.42173 0.816895 9.42577 0.816895H6.86747V10.7077C6.86747 10.8405 6.86747 10.9718 6.86188 11.1015C6.86188 11.1176 6.86033 11.1325 6.8594 11.1499C6.8594 11.157 6.8594 11.1644 6.85785 11.1719V11.1775C6.83089 11.5324 6.7171 11.8751 6.52652 12.1758C6.33593 12.4763 6.07439 12.7256 5.76489 12.9014C5.44233 13.0849 5.07749 13.181 4.70637 13.1806C3.51443 13.1806 2.54839 12.2088 2.54839 11.0087C2.54839 9.80856 3.51443 8.8368 4.70637 8.8368C4.93201 8.83658 5.15625 8.87208 5.37078 8.94198L5.37388 6.33756C4.72263 6.25345 4.06101 6.3052 3.43075 6.48954C2.80051 6.67388 2.21531 6.98683 1.71207 7.40861C1.27112 7.79168 0.900415 8.24873 0.616632 8.75923C0.508639 8.94539 0.101185 9.69345 0.0518441 10.9075C0.0208111 11.5966 0.227797 12.3106 0.32648 12.6056V12.6119C0.388544 12.7856 0.629045 13.3785 1.02098 13.8784C1.33702 14.2794 1.71042 14.6315 2.12915 14.9237V14.9175L2.13536 14.9237C3.37385 15.7651 4.74703 15.7099 4.74703 15.7099C4.98474 15.7003 5.78103 15.7099 6.68531 15.2815C7.68828 14.8064 8.25926 14.0987 8.25926 14.0987C8.62404 13.6758 8.91411 13.1938 9.117 12.6736C9.3485 12.0652 9.42577 11.3354 9.42577 11.0438V5.79644C9.45681 5.81506 9.87015 6.08841 9.87015 6.08841C9.87015 6.08841 10.4657 6.47004 11.3947 6.71857C12.0614 6.89542 12.9594 6.93265 12.9594 6.93265V4.3934C12.6447 4.42753 12.0057 4.32824 11.3516 4.00214Z" fill="white" fill-opacity="0.9"/>
</svg>
