<svg width="13" height="15" viewBox="0 0 13 15" fill="none" xmlns="http://www.w3.org/2000/svg">
<path d="M11.3516 3.18707C11.2511 3.13513 11.1532 3.07817 11.0584 3.01643C10.7826 2.83413 10.5297 2.61932 10.3052 2.37665C9.74354 1.73408 9.53377 1.08219 9.4565 0.625787H9.45959C9.39505 0.246945 9.42173 0.00183105 9.42577 0.00183105H6.86747V9.89267C6.86747 10.0255 6.86747 10.1567 6.86188 10.2864C6.86188 10.3025 6.86033 10.3174 6.8594 10.3348C6.8594 10.3419 6.8594 10.3494 6.85785 10.3568V10.3624C6.83089 10.7173 6.7171 11.0601 6.52652 11.3607C6.33593 11.6613 6.07439 11.9105 5.76489 12.0863C5.44233 12.2698 5.07749 12.366 4.70637 12.3656C3.51443 12.3656 2.54839 11.3938 2.54839 10.1936C2.54839 8.9935 3.51443 8.02173 4.70637 8.02173C4.93201 8.02152 5.15625 8.05702 5.37078 8.12692L5.37388 5.52249C4.72263 5.43838 4.06101 5.49014 3.43075 5.67448C2.80051 5.85882 2.21531 6.17176 1.71207 6.59355C1.27112 6.97661 0.900415 7.43367 0.616632 7.94416C0.508639 8.13033 0.101185 8.87839 0.0518441 10.0925C0.0208111 10.7816 0.227797 11.4955 0.32648 11.7906V11.7968C0.388544 11.9706 0.629045 12.5635 1.02098 13.0634C1.33702 13.4643 1.71042 13.8165 2.12915 14.1086V14.1024L2.13536 14.1086C3.37385 14.9501 4.74703 14.8949 4.74703 14.8949C4.98474 14.8852 5.78103 14.8949 6.68531 14.4664C7.68828 13.9914 8.25926 13.2837 8.25926 13.2837C8.62404 12.8607 8.91411 12.3788 9.117 11.8586C9.3485 11.2501 9.42577 10.5203 9.42577 10.2287V4.98138C9.45681 5 9.87015 5.27335 9.87015 5.27335C9.87015 5.27335 10.4657 5.65498 11.3947 5.90351C12.0614 6.08036 12.9594 6.11759 12.9594 6.11759V3.57833C12.6447 3.61247 12.0057 3.51318 11.3516 3.18707Z" fill="white" fill-opacity="0.9"/>
</svg>
