<svg width="15" height="15" viewBox="0 0 15 15" fill="none" xmlns="http://www.w3.org/2000/svg">
<path fill-rule="evenodd" clip-rule="evenodd" d="M0.642487 1.93692C0.642487 1.63987 0.76049 1.35499 0.970536 1.14494C1.18058 0.934898 1.46546 0.816896 1.76252 0.816896H12.9275C13.0747 0.816655 13.2205 0.845453 13.3566 0.901639C13.4926 0.957826 13.6163 1.0403 13.7204 1.14433C13.8246 1.24837 13.9072 1.37193 13.9635 1.50793C14.0198 1.64393 14.0488 1.78971 14.0487 1.93692V13.1018C14.0489 13.2491 14.02 13.3949 13.9637 13.531C13.9075 13.667 13.825 13.7907 13.7209 13.8948C13.6168 13.999 13.4932 14.0816 13.3572 14.1379C13.2211 14.1942 13.0753 14.2232 12.9281 14.2231H1.76252C1.61538 14.2231 1.46969 14.1941 1.33376 14.1378C1.19783 14.0814 1.07433 13.9989 0.97032 13.8948C0.866308 13.7907 0.78382 13.6672 0.727569 13.5312C0.671318 13.3953 0.642407 13.2496 0.642487 13.1024V1.93692ZM5.94891 5.92832H7.76424V6.83994C8.02627 6.31588 8.69658 5.84423 9.70387 5.84423C11.635 5.84423 12.0926 6.88808 12.0926 8.80334V12.3511H10.1384V9.23965C10.1384 8.14888 9.87633 7.53341 9.21089 7.53341C8.28769 7.53341 7.90378 8.19702 7.90378 9.23965V12.3511H5.94891V5.92832ZM2.59736 12.2676H4.55223V5.84423H2.59736V12.2676ZM4.83193 3.7492C4.83562 3.91658 4.80583 4.08301 4.74433 4.23872C4.68282 4.39443 4.59083 4.53629 4.47376 4.65597C4.35669 4.77565 4.21689 4.87074 4.06257 4.93565C3.90825 5.00057 3.74252 5.03401 3.5751 5.03401C3.40768 5.03401 3.24195 5.00057 3.08763 4.93565C2.93331 4.87074 2.79351 4.77565 2.67644 4.65597C2.55936 4.53629 2.46738 4.39443 2.40587 4.23872C2.34437 4.08301 2.31458 3.91658 2.31827 3.7492C2.3255 3.42066 2.46109 3.10801 2.69601 2.87821C2.93092 2.64842 3.24648 2.51974 3.5751 2.51974C3.90372 2.51974 4.21928 2.64842 4.45419 2.87821C4.6891 3.10801 4.8247 3.42066 4.83193 3.7492Z" fill="white" fill-opacity="0.9"/>
</svg>
