<svg width="14" height="26" viewBox="0 0 14 26" fill="none" xmlns="http://www.w3.org/2000/svg">
<path d="M13.3543 3.10265C13.5868 2.8832 13.7286 2.57092 13.7478 2.23617C13.7669 1.90143 13.6617 1.57242 13.4561 1.32319C13.2502 1.07396 12.9612 0.92557 12.6542 0.911289C12.347 0.897008 12.0474 1.01822 11.8231 1.2476L0.378583 12.4828C0.137638 12.7196 0 13.0565 0 13.4102C0 13.764 0.137479 14.1009 0.378423 14.3376L11.8229 25.5728C12.0473 25.8022 12.347 25.9232 12.6542 25.9091C12.9612 25.8948 13.2502 25.7464 13.4561 25.4972C13.6617 25.248 13.7669 24.9188 13.7478 24.5842C13.7286 24.2495 13.5868 23.9372 13.3543 23.7177L2.85489 13.4104L13.3543 3.10265Z" fill="#636F78"/>
</svg>
