<svg width="15" height="15" viewBox="0 0 15 15" fill="none" xmlns="http://www.w3.org/2000/svg">
<path d="M8.81118 7.12811L7.17348 6.36394C7.03056 6.29759 6.91316 6.37196 6.91316 6.53019V7.96957C6.91316 8.1278 7.03056 8.20217 7.17348 8.13582L8.81046 7.37165C8.9541 7.30457 8.9541 7.19519 8.81118 7.12811ZM7.64233 0.249878C3.77629 0.249878 0.642334 3.38384 0.642334 7.24988C0.642334 11.1159 3.77629 14.2499 7.64233 14.2499C11.5083 14.2499 14.6423 11.1159 14.6423 7.24988C14.6423 3.38384 11.5083 0.249878 7.64233 0.249878ZM7.64233 10.0936C4.05921 10.0936 3.9965 9.77061 3.9965 7.24988C3.9965 4.72915 4.05921 4.40613 7.64233 4.40613C11.2254 4.40613 11.2881 4.72915 11.2881 7.24988C11.2881 9.77061 11.2254 10.0936 7.64233 10.0936Z" fill="white" fill-opacity="0.9"/>
</svg>
